<svg xmlns="http://www.w3.org/2000/svg" viewBox="0 0 32 40" x="0px" y="0px"><title>repeat one, repeat, music, media, </title><g data-name="17"><path d="M16,2A14,14,0,1,0,30,16,14,14,0,0,0,16,2ZM8,14a5,5,0,0,1,5-5h8V8l2.85,2L21,12V11H13a3,3,0,0,0-3,3v1H8Zm6,1,1-2h2v6H15V15Zm10,3a5,5,0,0,1-5,5H11v1L8.15,22,11,20v1h8a3,3,0,0,0,3-3V17h2Z"/></g><text x="0" y="47" fill="#000000" font-size="5px" font-weight="bold" font-family="'Helvetica Neue', Helvetica, Arial-Unicode, Arial, Sans-serif">Created by Kantor Tegalsari</text><text x="0" y="52" fill="#000000" font-size="5px" font-weight="bold" font-family="'Helvetica Neue', Helvetica, Arial-Unicode, Arial, Sans-serif">from the Noun Project</text></svg>