<svg xmlns="http://www.w3.org/2000/svg" viewBox="0 0 32 40" x="0px" y="0px"><title>repeat one, repeat, music, media, </title><g data-name="17"><path d="M16,2A14,14,0,1,0,30,16,14,14,0,0,0,16,2Zm0,27A13,13,0,1,1,29,16,13,13,0,0,1,16,29Z"/><path d="M10,14a3,3,0,0,1,3-3h8v1l2.85-2L21,8V9H13a5,5,0,0,0-5,5v1h2Z"/><path d="M22,18a3,3,0,0,1-3,3H11V20L8.15,22,11,24V23h8a5,5,0,0,0,5-5V17H22Z"/><polygon points="17 19 17 13 15 13 14 15 15 15 15 19 17 19"/></g><text x="0" y="47" fill="#000000" font-size="5px" font-weight="bold" font-family="'Helvetica Neue', Helvetica, Arial-Unicode, Arial, Sans-serif">Created by Kantor Tegalsari</text><text x="0" y="52" fill="#000000" font-size="5px" font-weight="bold" font-family="'Helvetica Neue', Helvetica, Arial-Unicode, Arial, Sans-serif">from the Noun Project</text></svg>